<svg width="46" height="32" viewBox="0 0 46 32" fill="none" xmlns="http://www.w3.org/2000/svg">
<rect x="0.5" y="0.5" width="45" height="31" rx="5.5" fill="white"/>
<rect x="0.5" y="0.5" width="45" height="31" rx="5.5" stroke="#F9F7F6"/>
<path fill-rule="evenodd" clip-rule="evenodd" d="M12.6964 11.1243C12.3097 11.5934 11.6909 11.9635 11.072 11.9107C10.9947 11.2762 11.2977 10.6022 11.6522 10.1859C12.0389 9.70344 12.7158 9.35981 13.2637 9.33337C13.3282 9.99421 13.0768 10.6418 12.6964 11.1243ZM13.2572 12.0362C12.712 12.004 12.2146 12.2043 11.8128 12.366C11.5542 12.4701 11.3353 12.5583 11.1687 12.5583C10.9817 12.5583 10.7538 12.4654 10.4978 12.3612C10.1623 12.2245 9.77884 12.0684 9.37669 12.0759C8.4549 12.0891 7.59758 12.6244 7.12702 13.4768C6.16012 15.1818 6.87563 17.7062 7.8103 19.094C8.26797 19.7812 8.81588 20.5346 9.53784 20.5082C9.85546 20.4959 10.0839 20.3965 10.3204 20.2936C10.5926 20.1752 10.8754 20.0522 11.3169 20.0522C11.7432 20.0522 12.0136 20.172 12.2732 20.287C12.52 20.3964 12.7571 20.5014 13.1089 20.495C13.8567 20.4817 14.3272 19.8077 14.7849 19.1204C15.2788 18.3828 15.4959 17.6629 15.5288 17.5536L15.5327 17.541C15.5319 17.5402 15.5258 17.5373 15.515 17.5323L15.515 17.5323C15.3499 17.4548 14.088 16.8625 14.0758 15.2743C14.0637 13.9413 15.0768 13.2658 15.2363 13.1595L15.2363 13.1595C15.246 13.153 15.2525 13.1487 15.2555 13.1464C14.6109 12.1684 13.6053 12.0626 13.2572 12.0362ZM18.4334 20.4223V10.1198H22.2043C24.1511 10.1198 25.5112 11.4943 25.5112 13.5033C25.5112 15.5122 24.1253 16.9 22.1528 16.9H19.9934V20.4223H18.4334ZM19.9932 11.4679H21.7917C23.1453 11.4679 23.9189 12.208 23.9189 13.5099C23.9189 14.8117 23.1453 15.5585 21.7852 15.5585H19.9932V11.4679ZM30.6616 19.1865C30.2491 19.9927 29.3402 20.5016 28.3604 20.5016C26.91 20.5016 25.898 19.616 25.898 18.2811C25.898 16.9595 26.8778 16.1995 28.6891 16.0872L30.6358 15.9682V15.3999C30.6358 14.5606 30.1008 14.1046 29.1468 14.1046C28.3604 14.1046 27.7867 14.521 27.6707 15.1554H26.2654C26.3105 13.8205 27.5353 12.849 29.1919 12.849C30.9775 12.849 32.1378 13.8073 32.1378 15.2942V20.4223H30.6939V19.1865H30.6616ZM28.7793 19.279C27.9477 19.279 27.4192 18.8693 27.4192 18.2415C27.4192 17.5939 27.9284 17.2172 28.9018 17.1577L30.6357 17.0454V17.6269C30.6357 18.5917 29.8364 19.279 28.7793 19.279ZM36.9271 20.8254C36.3018 22.6295 35.5863 23.2242 34.0651 23.2242C33.949 23.2242 33.5623 23.211 33.472 23.1846V21.9488C33.5687 21.962 33.8072 21.9753 33.9297 21.9753C34.6194 21.9753 35.0062 21.6779 35.2447 20.9047L35.3865 20.4487L32.7436 12.9482H34.3745L36.2116 19.0345H36.2438L38.081 12.9482H39.6667L36.9271 20.8254Z" fill="black"/>
</svg>
