<svg width="71" height="34" viewBox="0 0 71 34" fill="none" xmlns="http://www.w3.org/2000/svg">
<path d="M61.038 0H61.0375H61.037H9.4255C8.33525 0.00175 7.63275 0.0045 7.1025 0.009C6.5845 0.0135 6.21925 0.02 5.918 0.0295C5.36175 0.04725 4.94275 0.07925 4.559 0.13325C3.9195 0.2235 3.38875 0.3775 2.8885 0.61775C2.39275 0.856 1.9455 1.173 1.5585 1.56025C1.172 1.947 0.85575 2.3945 0.61825 2.89025C0.37875 3.39025 0.22525 3.921 0.135 4.56025C0.0805 4.94625 0.04825 5.3665 0.03025 5.92225C0.02025 6.22725 0.014 6.59325 0.00925 7.109C0.00475 7.63275 0.00175 8.32775 0 9.43275V23.6287C0.00175 24.735 0.00475 25.4298 0.00925 25.9538C0.01375 26.4695 0.02025 26.8355 0.03025 27.1405C0.04825 27.6965 0.0805 28.1165 0.135 28.5025C0.22525 29.1418 0.37875 29.6725 0.61825 30.1725C0.85575 30.6683 1.172 31.1158 1.5585 31.5025C1.94525 31.8898 2.39275 32.2067 2.8885 32.445C3.3885 32.6852 3.9195 32.8393 4.55875 32.9295C4.9425 32.9835 5.36175 33.0155 5.918 33.0332C6.219 33.043 6.5845 33.0492 7.10225 33.0537C7.63275 33.0583 8.335 33.061 9.42425 33.0628H61.0368C62.127 33.061 62.8295 33.0583 63.3597 33.0537C63.8778 33.0492 64.243 33.043 64.5443 33.0332C65.1005 33.0155 65.5195 32.9835 65.9033 32.9295C66.5428 32.8393 67.0735 32.6855 67.5738 32.445C68.0693 32.2067 68.5167 31.8898 68.9037 31.5025C69.2902 31.1158 69.6065 30.6683 69.844 30.1725C70.0835 29.6725 70.237 29.142 70.3272 28.5025C70.3817 28.1165 70.414 27.6965 70.432 27.1405C70.442 26.8347 70.4482 26.4688 70.453 25.9538C70.4578 25.4313 70.4605 24.7365 70.4625 23.63V9.434C70.4608 8.3265 70.4578 7.6315 70.453 7.109C70.4485 6.594 70.442 6.228 70.432 5.92225C70.414 5.36625 70.3815 4.94625 70.3272 4.56025C70.237 3.921 70.0835 3.39025 69.844 2.89025C69.6065 2.3945 69.2902 1.947 68.9037 1.56025C68.517 1.173 68.0695 0.856 67.5738 0.61775C67.0735 0.37725 66.5428 0.2235 65.9035 0.13325C65.5198 0.07925 65.1005 0.04725 64.5443 0.0295C64.2432 0.01975 63.8778 0.0135 63.36 0.009C62.8295 0.0045 62.127 0.00175 61.038 0Z" fill="white"/>
<path d="M61.0368 0.718268C62.1235 0.720018 62.8243 0.722518 63.3535 0.727268C63.8758 0.731768 64.2335 0.738268 64.5213 0.747518C65.07 0.765018 65.4625 0.796768 65.8033 0.844768C66.3753 0.925518 66.8385 1.06152 67.2628 1.26552C67.685 1.46827 68.0678 1.74002 68.3958 2.06827C68.7238 2.39652 68.9943 2.77902 69.1963 3.20077C69.3993 3.62477 69.5353 4.08777 69.616 4.66077C69.664 5.00177 69.6963 5.39577 69.7143 5.94577C69.7235 6.23427 69.7303 6.59252 69.7348 7.11577C69.7395 7.64577 69.7423 8.34727 69.744 9.43427V23.629C69.7423 24.716 69.7395 25.4175 69.7348 25.9475C69.73 26.4705 69.7235 26.829 69.7143 27.1175C69.6963 27.6678 69.6643 28.0615 69.616 28.4025C69.5353 28.9753 69.3993 29.4385 69.1963 29.8625C68.9943 30.2843 68.7235 30.667 68.3958 30.995C68.068 31.323 67.685 31.5948 67.2628 31.7978C66.8385 32.0015 66.3753 32.1378 65.8033 32.2185C65.4628 32.2665 65.0703 32.2983 64.5213 32.3158C64.2335 32.325 63.8758 32.3315 63.3535 32.336C62.8243 32.3405 62.1235 32.3433 61.0368 32.345H9.42551C8.33876 32.3433 7.63801 32.3405 7.10876 32.336C6.58651 32.3315 6.22876 32.325 5.94101 32.3158C5.39226 32.2983 4.99976 32.2665 4.65901 32.2185C4.08701 32.1378 3.62376 32.0018 3.19951 31.7978C2.77726 31.595 2.39451 31.3233 2.06651 30.995C1.73851 30.6668 1.46801 30.2843 1.26601 29.8625C1.06301 29.4385 0.927012 28.9755 0.846262 28.4025C0.798262 28.0615 0.766012 27.6675 0.748262 27.1175C0.739012 26.829 0.732262 26.4708 0.727512 25.9475C0.722762 25.4175 0.720012 24.716 0.718262 23.629V9.43402C0.720012 8.34702 0.722762 7.64552 0.727512 7.11552C0.732262 6.59252 0.738762 6.23402 0.748262 5.94552C0.766012 5.39527 0.798262 5.00152 0.846262 4.66052C0.927012 4.08777 1.06301 3.62452 1.26601 3.20052C1.46801 2.77877 1.73876 2.39602 2.06651 2.06802C2.39451 1.73977 2.77726 1.46827 3.19951 1.26527C3.62376 1.06152 4.08701 0.925268 4.65901 0.844518C4.99951 0.796518 5.39201 0.764768 5.94101 0.747268C6.22876 0.738018 6.58651 0.731518 7.10876 0.727018C7.63801 0.722518 8.33876 0.719768 9.42551 0.718018L61.0368 0.718268Z" fill="black"/>
<path d="M29.1567 15.2421V9.40283H31.3297C31.6157 9.40283 31.8772 9.44883 32.115 9.54033C32.3522 9.63208 32.5567 9.76233 32.728 9.93083C32.8992 10.0993 33.0322 10.3011 33.1267 10.5358C33.221 10.7703 33.2682 11.0308 33.2682 11.3168V11.3251C33.2682 11.6111 33.221 11.8713 33.1267 12.1061C33.0322 12.3406 32.8995 12.5431 32.728 12.7131C32.5565 12.8831 32.3522 13.0146 32.115 13.1076C31.8775 13.2008 31.6157 13.2473 31.3297 13.2473H30.0632V15.2423H29.1567V15.2421ZM31.1035 10.1678H30.0635V12.4866H31.1035C31.4972 12.4866 31.803 12.3853 32.02 12.1831C32.2372 11.9806 32.346 11.6961 32.346 11.3291V11.3211C32.346 10.9568 32.2372 10.6736 32.02 10.4713C31.8027 10.2688 31.4972 10.1678 31.1035 10.1678Z" fill="white"/>
<path d="M34.1055 15.242V10.985H34.9795V11.7135H35C35.07 11.4653 35.1903 11.2685 35.36 11.1228C35.53 10.977 35.7363 10.9043 35.9793 10.9043C36.0413 10.9043 36.0987 10.9083 36.1512 10.9165C36.204 10.9245 36.2477 10.9313 36.2827 10.9368V11.75C36.2475 11.7365 36.195 11.725 36.1247 11.7155C36.0547 11.706 35.9765 11.7013 35.8903 11.7013C35.6098 11.7013 35.3878 11.789 35.2248 11.9643C35.0615 12.1398 34.98 12.3865 34.98 12.7048V15.242H34.1055Z" fill="white"/>
<path d="M38.7248 15.327C38.3093 15.327 37.951 15.2375 37.6502 15.058C37.3495 14.8785 37.1187 14.6243 36.9582 14.2953C36.7975 13.9663 36.7175 13.5775 36.7175 13.1298V13.1258C36.7175 12.7938 36.7632 12.4918 36.855 12.2193C36.9467 11.9468 37.079 11.712 37.2515 11.5153C37.424 11.3185 37.6308 11.1673 37.8708 11.062C38.111 10.9568 38.3808 10.9043 38.68 10.9043C39.0795 10.9043 39.4227 10.9933 39.71 11.1713C39.9972 11.3493 40.2183 11.5988 40.3735 11.92C40.5285 12.241 40.6063 12.6148 40.6063 13.0408V13.3363H37.5915C37.5995 13.7383 37.7067 14.0513 37.913 14.275C38.1195 14.499 38.3968 14.611 38.7448 14.611C38.9173 14.611 39.0697 14.584 39.202 14.53C39.334 14.476 39.444 14.4045 39.5315 14.3155C39.6193 14.2265 39.6808 14.1293 39.7158 14.024L39.7277 13.9918H40.5573L40.5493 14.0363C40.514 14.2063 40.4483 14.3683 40.351 14.5218C40.2538 14.6755 40.1275 14.8133 39.9725 14.9345C39.8175 15.0558 39.6352 15.1518 39.426 15.2218C39.2177 15.292 38.9835 15.327 38.7248 15.327ZM38.6842 11.6205C38.4952 11.6205 38.3242 11.6623 38.1702 11.7458C38.0165 11.8295 37.8903 11.953 37.7918 12.116C37.6933 12.279 37.6305 12.4795 37.6035 12.7168H39.7402C39.705 12.3473 39.5918 12.072 39.4005 11.8913C39.2088 11.7108 38.97 11.6205 38.6842 11.6205Z" fill="white"/>
<path d="M41.4895 15.2421V10.9851H42.3635V11.6448H42.3838C42.4753 11.4208 42.6245 11.2416 42.8308 11.1066C43.037 10.9716 43.2793 10.9041 43.557 10.9041C43.8513 10.9041 44.1015 10.9771 44.3078 11.1226C44.514 11.2683 44.659 11.4746 44.7428 11.7418H44.763C44.8735 11.4828 45.047 11.2786 45.283 11.1288C45.5188 10.9791 45.7883 10.9043 46.0903 10.9043C46.3708 10.9043 46.6158 10.9631 46.8248 11.0803C47.0338 11.1978 47.1955 11.3616 47.3103 11.5721C47.4248 11.7826 47.4823 12.0306 47.4823 12.3168V15.2426H46.604V12.5268C46.604 12.2491 46.5333 12.0338 46.3915 11.8813C46.25 11.7291 46.0498 11.6526 45.7908 11.6526C45.618 11.6526 45.4655 11.6923 45.3335 11.7721C45.2013 11.8516 45.0983 11.9608 45.024 12.0998C44.9498 12.2388 44.9128 12.3986 44.9128 12.5793V15.2421H44.0548V12.4621C44.0548 12.2138 43.9825 12.0168 43.8383 11.8713C43.694 11.7258 43.4978 11.6528 43.2498 11.6528C43.077 11.6528 42.9238 11.6946 42.7903 11.7783C42.6568 11.8621 42.5523 11.9761 42.4768 12.1203C42.401 12.2646 42.3635 12.4286 42.3635 12.6118V15.2421H41.4895Z" fill="white"/>
<path d="M49.0047 10.3295C48.9102 10.3295 48.8245 10.3065 48.7477 10.2608C48.6707 10.215 48.6095 10.1543 48.5637 10.0788C48.518 10.0033 48.495 9.91953 48.495 9.82778C48.495 9.73353 48.518 9.64853 48.5637 9.57278C48.6095 9.49703 48.671 9.43653 48.7477 9.39053C48.8247 9.34478 48.9102 9.32178 49.0047 9.32178C49.102 9.32178 49.1887 9.34478 49.2657 9.39053C49.3427 9.43653 49.4032 9.49703 49.448 9.57278C49.4925 9.64828 49.5147 9.73328 49.5147 9.82778C49.5147 9.91953 49.4925 10.0033 49.448 10.0788C49.4032 10.1543 49.3427 10.215 49.2657 10.2608C49.1887 10.3065 49.102 10.3295 49.0047 10.3295ZM48.5677 15.242V10.985H49.4417V15.242H48.5677Z" fill="white"/>
<path d="M52 15.327C51.69 15.327 51.4247 15.263 51.2047 15.1347C50.985 15.0065 50.8177 14.8245 50.703 14.5882C50.5882 14.3522 50.531 14.071 50.531 13.7445V10.985H51.405V13.5747C51.405 13.8957 51.4805 14.1427 51.6315 14.3152C51.7825 14.4877 52.0092 14.5742 52.3115 14.5742C52.5162 14.5742 52.6945 14.5285 52.8457 14.4367C52.9967 14.345 53.114 14.2162 53.1977 14.0502C53.2812 13.8842 53.323 13.6907 53.323 13.4695V10.985H54.2012V15.242H53.323V14.6025H53.303C53.1922 14.8157 53.0282 14.9897 52.8112 15.1245C52.594 15.2595 52.3235 15.327 52 15.327Z" fill="white"/>
<path d="M55.2292 15.2421V10.9851H56.1032V11.6448H56.1235C56.215 11.4208 56.3642 11.2416 56.5705 11.1066C56.7767 10.9716 57.019 10.9041 57.2967 10.9041C57.591 10.9041 57.8412 10.9771 58.0475 11.1226C58.2537 11.2683 58.3987 11.4746 58.4825 11.7418H58.5027C58.6132 11.4828 58.7867 11.2786 59.0227 11.1288C59.2585 10.9791 59.528 10.9043 59.83 10.9043C60.1105 10.9043 60.3555 10.9631 60.5645 11.0803C60.7735 11.1978 60.9352 11.3616 61.05 11.5721C61.1645 11.7826 61.222 12.0306 61.222 12.3168V15.2426H60.3437V12.5268C60.3437 12.2491 60.273 12.0338 60.1312 11.8813C59.9897 11.7291 59.7895 11.6526 59.5305 11.6526C59.3577 11.6526 59.2052 11.6923 59.0732 11.7721C58.941 11.8516 58.838 11.9608 58.7637 12.0998C58.6895 12.2388 58.6525 12.3986 58.6525 12.5793V15.2421H57.7945V12.4621C57.7945 12.2138 57.7222 12.0168 57.578 11.8713C57.4337 11.7258 57.2375 11.6528 56.9895 11.6528C56.8167 11.6528 56.6635 11.6946 56.53 11.7783C56.3965 11.8621 56.292 11.9761 56.2165 12.1203C56.1407 12.2646 56.1032 12.4286 56.1032 12.6118V15.2421H55.2292Z" fill="white"/>
<path d="M29.1567 23.8757V18.0365H31.3297C31.6157 18.0365 31.8772 18.0825 32.115 18.174C32.3522 18.2657 32.5567 18.396 32.728 18.5645C32.8992 18.733 33.0322 18.9347 33.1267 19.1695C33.221 19.404 33.2682 19.6645 33.2682 19.9505V19.9587C33.2682 20.2447 33.221 20.505 33.1267 20.7397C33.0322 20.9742 32.8995 21.1767 32.728 21.3467C32.5565 21.5167 32.3522 21.6482 32.115 21.7412C31.8775 21.8345 31.6157 21.881 31.3297 21.881H30.0632V23.876L29.1567 23.8757ZM31.1035 18.8012H30.0635V21.12H31.1035C31.4972 21.12 31.803 21.0187 32.02 20.8165C32.2372 20.614 32.346 20.3295 32.346 19.9625V19.9545C32.346 19.5902 32.2372 19.307 32.02 19.1047C31.8027 18.9025 31.4972 18.8012 31.1035 18.8012Z" fill="white"/>
<path d="M35.1485 23.9528C34.8652 23.9528 34.617 23.8988 34.4037 23.7911C34.1905 23.6833 34.0247 23.5321 33.9062 23.3378C33.7872 23.1436 33.728 22.9198 33.728 22.6661V22.6581C33.728 22.2883 33.8657 21.9943 34.1407 21.7758C34.4157 21.5573 34.8057 21.4333 35.3102 21.4036L36.4677 21.3348V21.0151C36.4677 20.7803 36.3947 20.5963 36.2492 20.4628C36.1035 20.3293 35.8942 20.2626 35.6217 20.2626C35.3682 20.2626 35.166 20.3166 35.0147 20.4243C34.8635 20.5321 34.7695 20.6711 34.7315 20.8411L34.7235 20.8776H33.898L33.902 20.8331C33.9235 20.5876 34.0057 20.3678 34.1487 20.1736C34.2917 19.9793 34.49 19.8248 34.7437 19.7101C34.9972 19.5956 35.298 19.5381 35.646 19.5381C35.994 19.5381 36.2947 19.5961 36.5482 19.7121C36.8017 19.8281 36.9982 19.9906 37.137 20.1996C37.276 20.4086 37.3452 20.6563 37.3452 20.9421V23.8758H36.4672V23.2041H36.451C36.327 23.4333 36.149 23.6156 35.9167 23.7503C35.6855 23.8853 35.429 23.9528 35.1485 23.9528ZM34.6105 22.6456C34.6105 22.8318 34.6812 22.9793 34.823 23.0886C34.9647 23.1978 35.1527 23.2526 35.3875 23.2526C35.5925 23.2526 35.7767 23.2101 35.94 23.1251C36.103 23.0401 36.232 22.9241 36.3265 22.7771C36.4207 22.6301 36.468 22.4648 36.468 22.2813V21.9496L35.428 22.0143C35.1662 22.0306 34.9645 22.0931 34.823 22.2023C34.6815 22.3118 34.6105 22.4568 34.6105 22.6373V22.6456Z" fill="white"/>
<path d="M38.3575 23.8758V19.6188H39.2315V20.3473H39.2517C39.3217 20.0991 39.442 19.9023 39.6117 19.7566C39.7817 19.6108 39.988 19.5381 40.231 19.5381C40.293 19.5381 40.3505 19.5421 40.403 19.5503C40.4557 19.5583 40.4995 19.5651 40.5345 19.5706V20.3841C40.4992 20.3706 40.4467 20.3591 40.3765 20.3496C40.3065 20.3401 40.2282 20.3353 40.142 20.3353C39.8615 20.3353 39.6395 20.4231 39.4765 20.5983C39.3132 20.7738 39.2317 21.0206 39.2317 21.3388V23.8761L38.3575 23.8758Z" fill="white"/>
<path d="M43.0672 23.9608C42.6462 23.9608 42.3332 23.8658 42.1282 23.6755C41.9232 23.4853 41.821 23.1785 41.821 22.7548V20.3148H41.21V19.6188H41.821V18.51H42.7152V19.6188H43.5122V20.3148H42.7152V22.7023C42.7152 22.9183 42.763 23.066 42.8587 23.1453C42.9545 23.225 43.094 23.2648 43.2777 23.2648C43.3235 23.2648 43.366 23.2628 43.4052 23.2588C43.4442 23.2545 43.48 23.2513 43.5125 23.2485V23.9243C43.4612 23.9323 43.3965 23.9403 43.3182 23.9485C43.24 23.9568 43.1562 23.9608 43.0672 23.9608Z" fill="white"/>
<path d="M44.44 23.8758V19.6188H45.314V20.2623H45.3343C45.4448 20.0466 45.6095 19.8718 45.828 19.7383C46.0465 19.6048 46.3163 19.5381 46.6373 19.5381C46.95 19.5381 47.2158 19.6021 47.4343 19.7303C47.6528 19.8586 47.82 20.0406 47.936 20.2766C48.052 20.5126 48.11 20.7938 48.11 21.1203V23.8761H47.2318V21.2861C47.2318 20.9651 47.157 20.7183 47.0073 20.5456C46.8575 20.3728 46.6303 20.2866 46.3253 20.2866C46.1205 20.2866 45.9423 20.3331 45.7913 20.4263C45.6403 20.5193 45.5228 20.6488 45.4393 20.8148C45.3555 20.9808 45.3138 21.1743 45.3138 21.3956V23.8761L44.44 23.8758Z" fill="white"/>
<path d="M50.9347 23.9608C50.5192 23.9608 50.161 23.8713 49.8602 23.6918C49.5595 23.5123 49.3287 23.2581 49.1682 22.9291C49.0075 22.6001 48.9275 22.2113 48.9275 21.7636V21.7596C48.9275 21.4276 48.9732 21.1256 49.065 20.8531C49.1567 20.5806 49.289 20.3458 49.4615 20.1491C49.634 19.9523 49.8407 19.8011 50.0807 19.6958C50.321 19.5906 50.5907 19.5381 50.89 19.5381C51.2895 19.5381 51.6327 19.6271 51.92 19.8051C52.2072 19.9831 52.4282 20.2326 52.5835 20.5538C52.7385 20.8748 52.8162 21.2486 52.8162 21.6746V21.9701H49.8015C49.8095 22.3721 49.9167 22.6851 50.123 22.9088C50.3295 23.1328 50.6067 23.2448 50.9547 23.2448C51.1272 23.2448 51.2797 23.2178 51.412 23.1638C51.544 23.1098 51.654 23.0383 51.7415 22.9493C51.8292 22.8603 51.8907 22.7631 51.9257 22.6578L51.9377 22.6256H52.7672L52.7592 22.6701C52.724 22.8401 52.6582 23.0021 52.561 23.1556C52.4637 23.3093 52.3375 23.4471 52.1825 23.5683C52.0275 23.6896 51.8452 23.7856 51.636 23.8556C51.4275 23.9258 51.1935 23.9608 50.9347 23.9608ZM50.8942 20.2541C50.7052 20.2541 50.5342 20.2958 50.3802 20.3793C50.2265 20.4631 50.1002 20.5866 50.0017 20.7496C49.9032 20.9126 49.8405 21.1131 49.8135 21.3503H51.9502C51.915 20.9808 51.8017 20.7056 51.6105 20.5248C51.4187 20.3446 51.18 20.2541 50.8942 20.2541Z" fill="white"/>
<path d="M53.6992 23.8758V19.6188H54.5732V20.3473H54.5935C54.6635 20.0991 54.7837 19.9023 54.9535 19.7566C55.1235 19.6108 55.3298 19.5381 55.5728 19.5381C55.6348 19.5381 55.6923 19.5421 55.7448 19.5503C55.7975 19.5583 55.8413 19.5651 55.8763 19.5706V20.3841C55.841 20.3706 55.7885 20.3591 55.7183 20.3496C55.6483 20.3401 55.57 20.3353 55.4837 20.3353C55.2032 20.3353 54.9812 20.4231 54.8182 20.5983C54.655 20.7738 54.5735 21.0206 54.5735 21.3388V23.8761L53.6992 23.8758Z" fill="white"/>
<path d="M20.0785 10.8377C18.608 10.729 17.3605 11.659 16.6645 11.659C15.9582 11.659 14.8695 10.861 13.7152 10.883C12.1992 10.9052 10.8022 11.765 10.0207 13.1222C8.44625 15.855 9.61875 19.9047 11.1525 22.1222C11.9027 23.2057 12.7975 24.427 13.9725 24.3825C15.1037 24.338 15.5317 23.6507 16.899 23.6507C18.2655 23.6507 18.651 24.3825 19.8472 24.3605C21.0647 24.338 21.8362 23.2545 22.581 22.1647C23.4427 20.9069 23.7968 19.6892 23.8178 19.6247C23.7908 19.6145 21.4445 18.7142 21.421 16.011C21.3997 13.7507 23.2657 12.6645 23.3507 12.6122C22.291 11.0525 20.655 10.8805 20.0785 10.8377Z" fill="white"/>
<path d="M19.1713 9.37372C19.7958 8.61897 20.216 7.56772 20.1003 6.52222C19.2015 6.55797 18.1143 7.12097 17.4695 7.87522C16.8923 8.54347 16.385 9.61372 16.5228 10.6377C17.5248 10.7155 18.5473 10.129 19.1713 9.37372Z" fill="white"/>
</svg>
