
<svg width="66" height="61" viewBox="0 0 66 61" fill="none" xmlns="http://www.w3.org/2000/svg">
<path d="M63.4357 42.9929H51.5009L55.342 52.7331L45.5635 48.4859L45.5608 59.3738L36.772 50.585L32.413 60.6169L28.6237 51.013L21.3397 58.297V47.3328L9.7975 51.8853L14.1456 41.8752H3.503L10.9261 34.4521L0 29.7087L10.4599 25.5842L2.52707 17.6513H14.4727L10.6317 7.91651L20.4128 12.1637V1.27853L29.1826 10.0483L33.5498 0L37.3417 9.61485L44.6367 2.32261V13.306L56.1516 8.76432L51.8062 18.769H62.4461L55.0285 26.1866L65.96 30.9355L55.5055 35.06L63.4357 42.9929Z" fill="#F54E80"/>
<path d="M38.16 18.7504H42.416L28.016 41.1504H23.76L38.16 18.7504ZM20.56 24.0944C20.56 22.4517 21.0507 21.1504 22.032 20.1904C23.0134 19.2304 24.3147 18.7504 25.936 18.7504C27.536 18.7504 28.816 19.2304 29.776 20.1904C30.7574 21.1504 31.248 22.4517 31.248 24.0944C31.248 25.7371 30.7574 27.0384 29.776 27.9984C28.816 28.9584 27.536 29.4384 25.936 29.4384C24.3147 29.4384 23.0134 28.9584 22.032 27.9984C21.0507 27.0384 20.56 25.7371 20.56 24.0944ZM23.696 24.0944C23.696 25.0544 23.8987 25.7584 24.304 26.2064C24.7307 26.6331 25.2747 26.8464 25.936 26.8464C26.576 26.8464 27.0987 26.6331 27.504 26.2064C27.9307 25.7584 28.144 25.0544 28.144 24.0944C28.144 23.1557 27.9307 22.4624 27.504 22.0144C27.0987 21.5664 26.576 21.3424 25.936 21.3424C25.2747 21.3424 24.7307 21.5664 24.304 22.0144C23.8987 22.4624 23.696 23.1557 23.696 24.0944ZM34.8 35.7744C34.8 34.1531 35.2907 32.8624 36.272 31.9024C37.2534 30.9424 38.544 30.4624 40.144 30.4624C41.744 30.4624 43.0347 30.9424 44.016 31.9024C44.9974 32.8624 45.488 34.1531 45.488 35.7744C45.488 37.4171 44.9974 38.7291 44.016 39.7104C43.0347 40.6704 41.744 41.1504 40.144 41.1504C38.5227 41.1504 37.2214 40.6704 36.24 39.7104C35.28 38.7291 34.8 37.4171 34.8 35.7744ZM37.904 35.7744C37.904 36.7557 38.1067 37.4704 38.512 37.9184C38.9387 38.3451 39.4827 38.5584 40.144 38.5584C40.8054 38.5584 41.3387 38.3451 41.744 37.9184C42.1494 37.4704 42.352 36.7557 42.352 35.7744C42.352 34.8357 42.1387 34.1531 41.712 33.7264C41.3067 33.2784 40.784 33.0544 40.144 33.0544C39.4827 33.0544 38.9387 33.2784 38.512 33.7264C38.1067 34.1531 37.904 34.8357 37.904 35.7744Z" fill="white"/>
</svg>
