<svg width="14" height="16" viewBox="0 0 14 16" fill="none" xmlns="http://www.w3.org/2000/svg">
<path d="M5.49837 6.3003V5.67743C5.28498 5.64892 5.06803 5.63111 4.84397 5.63111C2.17303 5.6276 0 7.80242 0 10.4792C0 12.1201 0.817998 13.5724 2.06989 14.4516C1.26256 13.5867 0.768206 12.4227 0.768206 11.1484C0.768206 8.51075 2.88077 6.36082 5.49837 6.3003Z" fill="currentColor"/>
<path d="M5.61575 13.3624C6.80719 13.3624 7.78166 12.412 7.82436 11.2303L7.82793 0.669189H9.75554C9.7164 0.452057 9.69508 0.22781 9.69508 0H7.06325L7.05969 10.5611C7.01704 11.7428 6.04251 12.6932 4.8511 12.6932C4.48123 12.6932 4.13269 12.6007 3.82327 12.4369C4.2216 12.9958 4.876 13.3624 5.61575 13.3624Z" fill="currentColor"/>
<path d="M13.3584 4.2536V3.66631C12.6222 3.66631 11.9393 3.44917 11.3632 3.07184C11.8753 3.65918 12.5688 4.08634 13.3584 4.2536Z" fill="currentColor"/>
<path d="M9.69498 10.4792V5.12211C10.7264 5.86251 11.9925 6.3003 13.3582 6.3003V4.2536C12.5687 4.08634 11.8751 3.65918 11.363 3.07184C10.5379 2.53438 9.94397 1.67297 9.75544 0.669189H7.82783L7.82427 11.2302C7.78162 12.412 6.80709 13.3624 5.61571 13.3624C4.87593 13.3624 4.22508 12.9958 3.81965 12.4405C3.11545 12.0667 2.63177 11.3299 2.63177 10.4792C2.63177 9.25829 3.62403 8.26517 4.84392 8.26517C5.07153 8.26517 5.29204 8.30431 5.49832 8.36839V6.30387C2.88073 6.36083 0.768158 8.51076 0.768158 11.1484C0.768158 12.4227 1.26251 13.5831 2.06984 14.4516C2.85583 15.0033 3.81609 15.3308 4.84748 15.3308C7.51843 15.3308 9.69498 13.1524 9.69498 10.4792Z" fill="currentColor"/>
</svg>
