<svg width="23" height="17" viewBox="0 0 23 17" fill="none" xmlns="http://www.w3.org/2000/svg">
<path d="M22.8 8L21 5.9L18.7 0.9H15V0H1.39999V1.9H13.1V7.4H19.8L20.9 8.7V12.1H19.3C18.9 11 17.8 10.2 16.5 10.2C15.2 10.2 14.1 11 13.7 12.1H9.49999C9.09999 11 7.99999 10.2 6.69999 10.2C5.39999 10.2 4.39999 11 3.89999 12.1H1.39999V14.1H3.89999C4.29999 15.3 5.39999 16.2 6.79999 16.2C8.19999 16.2 9.29999 15.3 9.69999 14.1H13.7C14.1 15.3 15.2 16.2 16.6 16.2C18 16.2 19.1 15.3 19.5 14.1H23V8H22.8ZM6.69999 14.3C6.09999 14.3 5.59999 13.8 5.59999 13.2C5.59999 12.6 6.09999 12.1 6.69999 12.1C7.29999 12.1 7.79999 12.6 7.79999 13.2C7.79999 13.8 7.29999 14.3 6.69999 14.3ZM16.5 14.3C15.9 14.3 15.4 13.8 15.4 13.2C15.4 12.6 15.9 12.1 16.5 12.1C17.1 12.1 17.6 12.6 17.6 13.2C17.6 13.8 17.1 14.3 16.5 14.3ZM15 2.8H17.4L18.6 5.4H14.9V2.8H15Z" fill="currentColor"/>
<path d="M7.4 6.40002H0V8.30002H7.4V6.40002Z" fill="currentColor"/>
<path d="M8.50001 3.59998H1.10001V5.49998H8.50001V3.59998Z" fill="currentColor"/>
</svg>
